<svg xmlns="http://www.w3.org/2000/svg" xmlns:xlink="http://www.w3.org/1999/xlink" width="100" zoomAndPan="magnify" viewBox="0 0 75 74.999997" height="100" preserveAspectRatio="xMidYMid meet" version="1.0"><defs><clipPath id="2cd4672b75"><path d="M 1.03125 4 L 45 4 L 45 71.117188 L 1.03125 71.117188 Z M 1.03125 4 " clip-rule="nonzero"/></clipPath><clipPath id="5c3645bdcf"><path d="M 1.03125 4 L 45 4 L 45 55 L 1.03125 55 Z M 1.03125 4 " clip-rule="nonzero"/></clipPath><clipPath id="16d7e731d4"><path d="M 60 3.617188 L 73.78125 3.617188 L 73.78125 17 L 60 17 Z M 60 3.617188 " clip-rule="nonzero"/></clipPath><clipPath id="34d37a6f1d"><path d="M 28 4 L 73.78125 4 L 73.78125 71 L 28 71 Z M 28 4 " clip-rule="nonzero"/></clipPath><clipPath id="ce24b6893b"><path d="M 28 4 L 73.78125 4 L 73.78125 55 L 28 55 Z M 28 4 " clip-rule="nonzero"/></clipPath></defs><g clip-path="url(#2cd4672b75)"><path fill="#72ffff" d="M 18.335938 7 L 41.71875 30.351562 C 42.191406 30.820312 42.609375 31.332031 42.980469 31.886719 C 43.351562 32.4375 43.664062 33.023438 43.917969 33.636719 C 44.171875 34.25 44.363281 34.882812 44.492188 35.535156 C 44.625 36.1875 44.6875 36.84375 44.6875 37.511719 C 44.6875 38.175781 44.625 38.832031 44.492188 39.484375 C 44.363281 40.136719 44.171875 40.769531 43.917969 41.382812 C 43.664062 42 43.351562 42.582031 42.980469 43.132812 C 42.609375 43.6875 42.191406 44.199219 41.71875 44.667969 L 18.335938 68.019531 C 11.949219 74.398438 1.027344 69.878906 1.03125 60.855469 L 1.03125 14.152344 C 1.027344 5.144531 11.949219 0.625 18.335938 7 Z M 18.335938 7 " fill-opacity="1" fill-rule="nonzero"/></g><g clip-path="url(#5c3645bdcf)"><path fill="#00d7ff" d="M 18.335938 7 C 11.984375 0.660156 1.1875 5.089844 1.035156 14 C 1.035156 14 37.832031 48.769531 31.980469 54.433594 L 41.742188 44.691406 C 42.210938 44.21875 42.632812 43.707031 43 43.15625 C 43.371094 42.601562 43.683594 42.019531 43.9375 41.40625 C 44.191406 40.789062 44.386719 40.15625 44.515625 39.507812 C 44.644531 38.855469 44.710938 38.195312 44.710938 37.53125 C 44.710938 36.867188 44.644531 36.207031 44.515625 35.554688 C 44.386719 34.902344 44.191406 34.269531 43.9375 33.65625 C 43.683594 33.042969 43.371094 32.460938 43 31.90625 C 42.632812 31.355469 42.210938 30.84375 41.742188 30.371094 Z M 18.335938 7 " fill-opacity="1" fill-rule="nonzero"/></g><g clip-path="url(#16d7e731d4)"><path fill="#590696" d="M 73.78125 10.3125 C 73.78125 10.746094 73.738281 11.175781 73.65625 11.601562 C 73.570312 12.027344 73.445312 12.441406 73.277344 12.84375 C 73.109375 13.246094 72.90625 13.625 72.664062 13.988281 C 72.421875 14.347656 72.148438 14.683594 71.839844 14.988281 C 71.535156 15.296875 71.199219 15.570312 70.835938 15.8125 C 70.476562 16.054688 70.09375 16.257812 69.691406 16.425781 C 69.289062 16.589844 68.875 16.714844 68.449219 16.800781 C 68.023438 16.886719 67.589844 16.925781 67.15625 16.925781 C 66.722656 16.925781 66.289062 16.886719 65.863281 16.800781 C 65.4375 16.714844 65.023438 16.589844 64.621094 16.425781 C 64.21875 16.257812 63.835938 16.054688 63.476562 15.8125 C 63.113281 15.570312 62.777344 15.296875 62.472656 14.988281 C 62.164062 14.683594 61.890625 14.347656 61.648438 13.988281 C 61.40625 13.625 61.203125 13.246094 61.035156 12.84375 C 60.867188 12.441406 60.742188 12.027344 60.65625 11.601562 C 60.574219 11.175781 60.53125 10.746094 60.53125 10.3125 C 60.53125 9.875 60.574219 9.445312 60.65625 9.019531 C 60.742188 8.59375 60.867188 8.179688 61.035156 7.78125 C 61.203125 7.378906 61.40625 6.996094 61.648438 6.636719 C 61.890625 6.273438 62.164062 5.941406 62.472656 5.632812 C 62.777344 5.324219 63.113281 5.050781 63.476562 4.808594 C 63.835938 4.570312 64.21875 4.363281 64.621094 4.199219 C 65.023438 4.03125 65.4375 3.90625 65.863281 3.820312 C 66.289062 3.738281 66.722656 3.695312 67.15625 3.695312 C 67.589844 3.695312 68.023438 3.738281 68.449219 3.820312 C 68.875 3.90625 69.289062 4.03125 69.691406 4.199219 C 70.09375 4.363281 70.476562 4.570312 70.835938 4.808594 C 71.199219 5.050781 71.535156 5.324219 71.839844 5.632812 C 72.148438 5.941406 72.421875 6.273438 72.664062 6.636719 C 72.90625 6.996094 73.109375 7.378906 73.277344 7.78125 C 73.445312 8.179688 73.570312 8.59375 73.65625 9.019531 C 73.738281 9.445312 73.78125 9.875 73.78125 10.3125 Z M 73.78125 10.3125 " fill-opacity="1" fill-rule="nonzero"/><path fill="#590696" d="M 73.78125 10.3125 C 73.78125 10.746094 73.738281 11.175781 73.65625 11.601562 C 73.570312 12.027344 73.445312 12.441406 73.277344 12.84375 C 73.109375 13.246094 72.90625 13.625 72.664062 13.988281 C 72.421875 14.347656 72.148438 14.683594 71.839844 14.988281 C 71.535156 15.296875 71.199219 15.570312 70.835938 15.8125 C 70.476562 16.054688 70.09375 16.257812 69.691406 16.425781 C 69.289062 16.589844 68.875 16.714844 68.449219 16.800781 C 68.023438 16.886719 67.589844 16.925781 67.15625 16.925781 C 66.722656 16.925781 66.289062 16.886719 65.863281 16.800781 C 65.4375 16.714844 65.023438 16.589844 64.621094 16.425781 C 64.21875 16.257812 63.835938 16.054688 63.476562 15.8125 C 63.113281 15.570312 62.777344 15.296875 62.472656 14.988281 C 62.164062 14.683594 61.890625 14.347656 61.648438 13.988281 C 61.40625 13.625 61.203125 13.246094 61.035156 12.84375 C 60.867188 12.441406 60.742188 12.027344 60.65625 11.601562 C 60.574219 11.175781 60.53125 10.746094 60.53125 10.3125 C 60.53125 9.875 60.574219 9.445312 60.65625 9.019531 C 60.742188 8.59375 60.867188 8.179688 61.035156 7.78125 C 61.203125 7.378906 61.40625 6.996094 61.648438 6.636719 C 61.890625 6.273438 62.164062 5.941406 62.472656 5.632812 C 62.777344 5.324219 63.113281 5.050781 63.476562 4.808594 C 63.835938 4.570312 64.21875 4.363281 64.621094 4.199219 C 65.023438 4.03125 65.4375 3.90625 65.863281 3.820312 C 66.289062 3.738281 66.722656 3.695312 67.15625 3.695312 C 67.589844 3.695312 68.023438 3.738281 68.449219 3.820312 C 68.875 3.90625 69.289062 4.03125 69.691406 4.199219 C 70.09375 4.363281 70.476562 4.570312 70.835938 4.808594 C 71.199219 5.050781 71.535156 5.324219 71.839844 5.632812 C 72.148438 5.941406 72.421875 6.273438 72.664062 6.636719 C 72.90625 6.996094 73.109375 7.378906 73.277344 7.78125 C 73.445312 8.179688 73.570312 8.59375 73.65625 9.019531 C 73.738281 9.445312 73.78125 9.875 73.78125 10.3125 Z M 73.78125 10.3125 " fill-opacity="1" fill-rule="nonzero"/></g><g clip-path="url(#34d37a6f1d)"><path fill="#0096ff" d="M 70.808594 30.410156 L 47.425781 7.058594 C 41.148438 0.785156 24.414062 8.058594 30.140625 13.777344 L 46.957031 30.574219 C 47.429688 31.042969 47.847656 31.554688 48.21875 32.109375 C 48.589844 32.660156 48.902344 33.242188 49.15625 33.859375 C 49.410156 34.472656 49.605469 35.105469 49.734375 35.757812 C 49.863281 36.40625 49.929688 37.066406 49.929688 37.730469 C 49.929688 38.394531 49.863281 39.054688 49.734375 39.707031 C 49.605469 40.355469 49.410156 40.988281 49.15625 41.605469 C 48.902344 42.21875 48.589844 42.800781 48.21875 43.355469 C 47.847656 43.90625 47.429688 44.417969 46.957031 44.886719 L 30.152344 61.671875 C 25.027344 66.785156 41.210938 74.324219 47.425781 68.117188 L 70.808594 44.765625 C 71.28125 44.296875 71.707031 43.785156 72.078125 43.230469 C 72.449219 42.675781 72.765625 42.09375 73.023438 41.476562 C 73.277344 40.859375 73.472656 40.222656 73.601562 39.570312 C 73.734375 38.917969 73.800781 38.253906 73.800781 37.589844 C 73.800781 36.921875 73.734375 36.261719 73.601562 35.605469 C 73.472656 34.953125 73.277344 34.316406 73.023438 33.699219 C 72.765625 33.085938 72.449219 32.5 72.078125 31.945312 C 71.707031 31.390625 71.28125 30.878906 70.808594 30.410156 Z M 70.808594 30.410156 " fill-opacity="1" fill-rule="nonzero"/></g><g clip-path="url(#ce24b6893b)"><path fill="#5800ff" d="M 70.808594 30.410156 L 47.425781 7.058594 C 41.148438 0.785156 24.414062 8.058594 30.140625 13.777344 L 46.957031 30.574219 C 47.769531 31.382812 48.425781 32.304688 48.921875 33.335938 C 49.417969 34.371094 49.730469 35.457031 49.855469 36.59375 C 55.652344 43.386719 60.46875 49.984375 61.472656 54.09375 L 70.824219 44.75 C 71.296875 44.28125 71.71875 43.769531 72.089844 43.214844 C 72.460938 42.660156 72.773438 42.074219 73.027344 41.460938 C 73.285156 40.84375 73.476562 40.210938 73.605469 39.558594 C 73.734375 38.902344 73.800781 38.242188 73.800781 37.578125 C 73.796875 36.910156 73.734375 36.25 73.601562 35.597656 C 73.46875 34.945312 73.277344 34.308594 73.019531 33.695312 C 72.761719 33.082031 72.449219 32.496094 72.078125 31.941406 C 71.703125 31.390625 71.28125 30.878906 70.808594 30.410156 Z M 70.808594 30.410156 " fill-opacity="1" fill-rule="nonzero"/></g></svg>