<svg xmlns="http://www.w3.org/2000/svg" xmlns:xlink="http://www.w3.org/1999/xlink" width="300" zoomAndPan="magnify" viewBox="0 0 224.87999 74.999997" height="100" preserveAspectRatio="xMidYMid meet" version="1.0"><defs><g/><clipPath id="cead7ab489"><path d="M 18.6875 10.109375 L 55 10.109375 L 55 64.75 L 18.6875 64.75 Z M 18.6875 10.109375 " clip-rule="nonzero"/></clipPath><clipPath id="cfb8a5c84e"><path d="M 18.6875 10.109375 L 55 10.109375 L 55 52 L 18.6875 52 Z M 18.6875 10.109375 " clip-rule="nonzero"/></clipPath><clipPath id="d090ac70a6"><path d="M 67 10.109375 L 77.820312 10.109375 L 77.820312 21 L 67 21 Z M 67 10.109375 " clip-rule="nonzero"/></clipPath><clipPath id="0e51672c1a"><path d="M 41 10.109375 L 77.820312 10.109375 L 77.820312 64.75 L 41 64.75 Z M 41 10.109375 " clip-rule="nonzero"/></clipPath><clipPath id="3f1b2ac598"><path d="M 41 10.109375 L 77.820312 10.109375 L 77.820312 51 L 41 51 Z M 41 10.109375 " clip-rule="nonzero"/></clipPath></defs><g clip-path="url(#cead7ab489)"><path fill="#72ffff" d="M 32.75 12.847656 L 51.757812 31.75 C 52.140625 32.128906 52.480469 32.542969 52.78125 32.992188 C 53.082031 33.4375 53.335938 33.910156 53.542969 34.40625 C 53.75 34.90625 53.90625 35.417969 54.011719 35.945312 C 54.117188 36.472656 54.171875 37.003906 54.171875 37.542969 C 54.171875 38.082031 54.117188 38.613281 54.011719 39.140625 C 53.90625 39.671875 53.75 40.183594 53.542969 40.679688 C 53.335938 41.175781 53.082031 41.648438 52.78125 42.097656 C 52.480469 42.542969 52.140625 42.957031 51.757812 43.339844 L 32.75 62.238281 C 27.558594 67.402344 18.683594 63.742188 18.6875 56.4375 L 18.6875 18.636719 C 18.683594 11.34375 27.558594 7.683594 32.75 12.847656 Z M 32.75 12.847656 " fill-opacity="1" fill-rule="nonzero"/></g><g clip-path="url(#cfb8a5c84e)"><path fill="#00d7ff" d="M 32.75 12.847656 C 27.589844 7.714844 18.8125 11.300781 18.691406 18.511719 C 18.691406 18.511719 48.597656 46.65625 43.84375 51.242188 L 51.773438 43.355469 C 52.15625 42.972656 52.5 42.5625 52.800781 42.113281 C 53.101562 41.664062 53.355469 41.195312 53.5625 40.695312 C 53.769531 40.199219 53.925781 39.6875 54.03125 39.160156 C 54.136719 38.632812 54.1875 38.097656 54.1875 37.558594 C 54.1875 37.023438 54.136719 36.488281 54.03125 35.960938 C 53.925781 35.433594 53.769531 34.921875 53.5625 34.425781 C 53.355469 33.925781 53.101562 33.457031 52.800781 33.007812 C 52.5 32.558594 52.15625 32.148438 51.773438 31.765625 Z M 32.75 12.847656 " fill-opacity="1" fill-rule="nonzero"/></g><g clip-path="url(#d090ac70a6)"><path fill="#590696" d="M 77.820312 15.527344 C 77.820312 15.878906 77.785156 16.226562 77.714844 16.570312 C 77.644531 16.917969 77.542969 17.25 77.410156 17.578125 C 77.273438 17.902344 77.109375 18.210938 76.910156 18.503906 C 76.714844 18.796875 76.492188 19.066406 76.242188 19.3125 C 75.992188 19.5625 75.71875 19.785156 75.425781 19.980469 C 75.132812 20.175781 74.820312 20.339844 74.496094 20.476562 C 74.167969 20.609375 73.832031 20.710938 73.484375 20.78125 C 73.136719 20.847656 72.785156 20.882812 72.433594 20.882812 C 72.078125 20.882812 71.730469 20.847656 71.382812 20.78125 C 71.035156 20.710938 70.699219 20.609375 70.371094 20.476562 C 70.046875 20.339844 69.734375 20.175781 69.441406 19.980469 C 69.148438 19.785156 68.875 19.5625 68.625 19.3125 C 68.375 19.066406 68.152344 18.796875 67.957031 18.503906 C 67.757812 18.210938 67.59375 17.902344 67.457031 17.578125 C 67.324219 17.25 67.21875 16.917969 67.152344 16.570312 C 67.082031 16.226562 67.046875 15.878906 67.046875 15.527344 C 67.046875 15.175781 67.082031 14.828125 67.152344 14.480469 C 67.21875 14.136719 67.324219 13.800781 67.457031 13.476562 C 67.59375 13.152344 67.757812 12.84375 67.957031 12.550781 C 68.152344 12.257812 68.375 11.988281 68.625 11.738281 C 68.875 11.492188 69.148438 11.269531 69.441406 11.074219 C 69.734375 10.878906 70.046875 10.714844 70.371094 10.578125 C 70.699219 10.445312 71.035156 10.34375 71.382812 10.273438 C 71.730469 10.207031 72.078125 10.171875 72.433594 10.171875 C 72.785156 10.171875 73.136719 10.207031 73.484375 10.273438 C 73.832031 10.34375 74.167969 10.445312 74.496094 10.578125 C 74.820312 10.714844 75.132812 10.878906 75.425781 11.074219 C 75.71875 11.269531 75.992188 11.492188 76.242188 11.738281 C 76.492188 11.988281 76.714844 12.257812 76.910156 12.550781 C 77.109375 12.84375 77.273438 13.152344 77.410156 13.476562 C 77.542969 13.800781 77.644531 14.136719 77.714844 14.480469 C 77.785156 14.828125 77.820312 15.175781 77.820312 15.527344 Z M 77.820312 15.527344 " fill-opacity="1" fill-rule="nonzero"/><path fill="#590696" d="M 77.820312 15.527344 C 77.820312 15.878906 77.785156 16.226562 77.714844 16.570312 C 77.644531 16.917969 77.542969 17.25 77.410156 17.578125 C 77.273438 17.902344 77.109375 18.210938 76.910156 18.503906 C 76.714844 18.796875 76.492188 19.066406 76.242188 19.3125 C 75.992188 19.5625 75.71875 19.785156 75.425781 19.980469 C 75.132812 20.175781 74.820312 20.339844 74.496094 20.476562 C 74.167969 20.609375 73.832031 20.710938 73.484375 20.78125 C 73.136719 20.847656 72.785156 20.882812 72.433594 20.882812 C 72.078125 20.882812 71.730469 20.847656 71.382812 20.78125 C 71.035156 20.710938 70.699219 20.609375 70.371094 20.476562 C 70.046875 20.339844 69.734375 20.175781 69.441406 19.980469 C 69.148438 19.785156 68.875 19.5625 68.625 19.3125 C 68.375 19.066406 68.152344 18.796875 67.957031 18.503906 C 67.757812 18.210938 67.59375 17.902344 67.457031 17.578125 C 67.324219 17.25 67.21875 16.917969 67.152344 16.570312 C 67.082031 16.226562 67.046875 15.878906 67.046875 15.527344 C 67.046875 15.175781 67.082031 14.828125 67.152344 14.480469 C 67.21875 14.136719 67.324219 13.800781 67.457031 13.476562 C 67.59375 13.152344 67.757812 12.84375 67.957031 12.550781 C 68.152344 12.257812 68.375 11.988281 68.625 11.738281 C 68.875 11.492188 69.148438 11.269531 69.441406 11.074219 C 69.734375 10.878906 70.046875 10.714844 70.371094 10.578125 C 70.699219 10.445312 71.035156 10.34375 71.382812 10.273438 C 71.730469 10.207031 72.078125 10.171875 72.433594 10.171875 C 72.785156 10.171875 73.136719 10.207031 73.484375 10.273438 C 73.832031 10.34375 74.167969 10.445312 74.496094 10.578125 C 74.820312 10.714844 75.132812 10.878906 75.425781 11.074219 C 75.71875 11.269531 75.992188 11.492188 76.242188 11.738281 C 76.492188 11.988281 76.714844 12.257812 76.910156 12.550781 C 77.109375 12.84375 77.273438 13.152344 77.410156 13.476562 C 77.542969 13.800781 77.644531 14.136719 77.714844 14.480469 C 77.785156 14.828125 77.820312 15.175781 77.820312 15.527344 Z M 77.820312 15.527344 " fill-opacity="1" fill-rule="nonzero"/></g><g clip-path="url(#0e51672c1a)"><path fill="#0096ff" d="M 75.402344 31.796875 L 56.394531 12.894531 C 51.292969 7.816406 37.691406 13.703125 42.347656 18.332031 L 56.015625 31.929688 C 56.398438 32.308594 56.738281 32.722656 57.039062 33.171875 C 57.339844 33.617188 57.59375 34.089844 57.804688 34.585938 C 58.011719 35.082031 58.167969 35.597656 58.273438 36.125 C 58.378906 36.652344 58.429688 37.183594 58.429688 37.722656 C 58.429688 38.261719 58.378906 38.792969 58.273438 39.320312 C 58.167969 39.847656 58.011719 40.359375 57.804688 40.859375 C 57.59375 41.355469 57.339844 41.828125 57.039062 42.273438 C 56.738281 42.722656 56.398438 43.132812 56.015625 43.515625 L 42.355469 57.101562 C 38.191406 61.242188 51.34375 67.34375 56.394531 62.320312 L 75.402344 43.417969 C 75.789062 43.039062 76.132812 42.621094 76.433594 42.175781 C 76.738281 41.726562 76.992188 41.253906 77.199219 40.753906 C 77.410156 40.253906 77.566406 39.742188 77.671875 39.210938 C 77.78125 38.683594 77.832031 38.148438 77.832031 37.605469 C 77.832031 37.066406 77.78125 36.53125 77.671875 36.003906 C 77.566406 35.472656 77.410156 34.957031 77.199219 34.460938 C 76.992188 33.960938 76.738281 33.488281 76.433594 33.039062 C 76.132812 32.589844 75.789062 32.175781 75.402344 31.796875 Z M 75.402344 31.796875 " fill-opacity="1" fill-rule="nonzero"/></g><g clip-path="url(#3f1b2ac598)"><path fill="#5800ff" d="M 75.402344 31.796875 L 56.394531 12.894531 C 51.292969 7.816406 37.691406 13.703125 42.347656 18.332031 L 56.015625 31.929688 C 57.375 33.28125 58.160156 34.902344 58.371094 36.800781 C 63.082031 42.300781 66.996094 47.640625 67.8125 50.964844 L 75.414062 43.40625 C 75.800781 43.023438 76.140625 42.609375 76.441406 42.160156 C 76.746094 41.714844 77 41.238281 77.207031 40.742188 C 77.414062 40.242188 77.570312 39.730469 77.675781 39.199219 C 77.78125 38.671875 77.832031 38.136719 77.832031 37.597656 C 77.832031 37.058594 77.777344 36.523438 77.671875 35.996094 C 77.566406 35.46875 77.40625 34.953125 77.199219 34.457031 C 76.992188 33.957031 76.734375 33.484375 76.433594 33.039062 C 76.128906 32.589844 75.789062 32.175781 75.402344 31.796875 Z M 75.402344 31.796875 " fill-opacity="1" fill-rule="nonzero"/></g><g fill="#231f20" fill-opacity="1"><g transform="translate(89.02967, 51.317731)"><g><path d="M 11.714844 0.585938 C 18.054688 0.585938 22.167969 -2.207031 22.167969 -7.1875 C 22.167969 -12.320312 17.789062 -14.1875 13.074219 -15.054688 C 8.773438 -15.753906 6.640625 -16.734375 6.640625 -18.882812 C 6.640625 -20.507812 7.601562 -22.148438 11.488281 -22.148438 C 14.980469 -22.148438 16.507812 -20.542969 16.507812 -18.5625 L 21.207031 -18.5625 C 21.207031 -23.167969 17.941406 -26.261719 11.546875 -26.261719 C 4.886719 -26.261719 1.941406 -23.074219 1.941406 -18.902344 C 1.941406 -13.582031 7.207031 -12.035156 11.507812 -11.148438 C 15.074219 -10.46875 17.414062 -9.582031 17.414062 -7.207031 C 17.414062 -4.660156 15.546875 -3.378906 11.695312 -3.378906 C 8.074219 -3.378906 5.980469 -5.300781 5.980469 -7.695312 L 1.28125 -7.695312 C 1.28125 -3.679688 4.300781 0.585938 11.714844 0.585938 Z M 11.714844 0.585938 "/></g></g></g><g fill="#231f20" fill-opacity="1"><g transform="translate(112.383644, 51.317731)"><g><path d="M 7.246094 0 L 7.246094 -9.90625 C 7.246094 -13.394531 9.695312 -15.773438 12.375 -15.773438 C 15.128906 -15.773438 16.867188 -14.207031 16.867188 -10.355469 L 16.867188 0 L 21.429688 0 L 21.429688 -10.453125 C 21.429688 -16.546875 18.847656 -19.980469 13.640625 -19.980469 C 10.660156 -19.980469 8.339844 -18.601562 7.132812 -16.488281 L 7.246094 -18.660156 L 7.246094 -26.5625 L 2.679688 -26.5625 L 2.679688 0 Z M 7.246094 0 "/></g></g></g><g fill="#231f20" fill-opacity="1"><g transform="translate(136.341274, 51.317731)"><g><path d="M 11.488281 0.585938 C 17.46875 0.585938 21.753906 -3.980469 21.753906 -9.695312 C 21.753906 -15.375 17.46875 -19.980469 11.507812 -19.980469 C 5.566406 -19.980469 1.300781 -15.355469 1.300781 -9.695312 C 1.300781 -4 5.585938 0.585938 11.488281 0.585938 Z M 11.527344 -3.660156 C 8.261719 -3.660156 5.828125 -6.1875 5.828125 -9.695312 C 5.828125 -13.1875 8.261719 -15.753906 11.527344 -15.753906 C 14.789062 -15.753906 17.222656 -13.1875 17.222656 -9.695312 C 17.222656 -6.1875 14.789062 -3.660156 11.527344 -3.660156 Z M 11.527344 -3.660156 "/></g></g></g><g fill="#231f20" fill-opacity="1"><g transform="translate(159.393419, 51.317731)"><g><path d="M 7.246094 6.621094 L 7.246094 -0.886719 L 7.148438 -3.132812 C 8.433594 -0.886719 10.90625 0.585938 13.734375 0.585938 C 19.148438 0.585938 23.128906 -4 23.128906 -9.695312 C 23.128906 -15.355469 19.1875 -19.960938 13.675781 -19.960938 C 10.886719 -19.960938 8.414062 -18.46875 7.019531 -16.128906 L 7.019531 -19.394531 L 2.679688 -19.394531 L 2.679688 6.621094 Z M 12.902344 -3.621094 C 9.808594 -3.621094 7.1875 -6.148438 7.1875 -9.695312 C 7.1875 -13.09375 9.734375 -15.753906 12.886719 -15.753906 C 16.035156 -15.753906 18.601562 -13.339844 18.601562 -9.695312 C 18.601562 -5.941406 15.980469 -3.621094 12.902344 -3.621094 Z M 12.902344 -3.621094 "/></g></g></g><g fill="#231f20" fill-opacity="1"><g transform="translate(183.822656, 51.317731)"><g><path d="M 9.660156 0.585938 C 14.339844 0.585938 17.808594 -1.492188 17.808594 -5.753906 C 17.808594 -9.867188 14.675781 -11.035156 10.660156 -11.640625 C 7.320312 -12.167969 6.601562 -12.640625 6.601562 -14.09375 C 6.601562 -15.261719 7.472656 -16.242188 9.433594 -16.242188 C 11.546875 -16.242188 12.679688 -15.226562 12.773438 -13.789062 L 17.242188 -13.753906 C 17.242188 -17.449219 14.09375 -19.980469 9.414062 -19.980469 C 4.679688 -19.980469 2.113281 -17.5625 2.113281 -14 C 2.113281 -9.980469 5.320312 -8.488281 9.054688 -8 C 11.695312 -7.601562 13.148438 -7.132812 13.148438 -5.488281 C 13.148438 -4.019531 12.054688 -3.039062 9.695312 -3.039062 C 7.09375 -3.039062 5.773438 -4.375 5.699219 -6.148438 L 1.320312 -6.167969 C 1.320312 -2.753906 3.960938 0.585938 9.660156 0.585938 Z M 9.660156 0.585938 "/></g></g></g></svg>