<svg xmlns="http://www.w3.org/2000/svg" xmlns:xlink="http://www.w3.org/1999/xlink" width="300" zoomAndPan="magnify" viewBox="0 0 224.87999 74.999997" height="100" preserveAspectRatio="xMidYMid meet" version="1.0"><defs><g/><clipPath id="b5c81c4ba8"><path d="M 18.644531 10.097656 L 55 10.097656 L 55 65.125 L 18.644531 65.125 Z M 18.644531 10.097656 " clip-rule="nonzero"/></clipPath><clipPath id="3a1d873742"><path d="M 18.644531 10.097656 L 55 10.097656 L 55 52 L 18.644531 52 Z M 18.644531 10.097656 " clip-rule="nonzero"/></clipPath><clipPath id="776ea9781a"><path d="M 66 10.097656 L 77.605469 10.097656 L 77.605469 21 L 66 21 Z M 66 10.097656 " clip-rule="nonzero"/></clipPath><clipPath id="67b0d48845"><path d="M 41 10.097656 L 77.605469 10.097656 L 77.605469 65 L 41 65 Z M 41 10.097656 " clip-rule="nonzero"/></clipPath><clipPath id="b50546cf22"><path d="M 41 10.097656 L 77.605469 10.097656 L 77.605469 52 L 41 52 Z M 41 10.097656 " clip-rule="nonzero"/></clipPath></defs><g clip-path="url(#b5c81c4ba8)"><path fill="#ffffff" d="M 32.671875 12.851562 L 51.621094 31.890625 C 52.003906 32.273438 52.34375 32.691406 52.644531 33.140625 C 52.945312 33.59375 53.195312 34.066406 53.402344 34.566406 C 53.609375 35.070312 53.765625 35.585938 53.871094 36.117188 C 53.976562 36.648438 54.027344 37.183594 54.027344 37.726562 C 54.027344 38.269531 53.976562 38.804688 53.871094 39.335938 C 53.765625 39.871094 53.609375 40.386719 53.402344 40.886719 C 53.195312 41.386719 52.945312 41.863281 52.644531 42.3125 C 52.34375 42.765625 52.003906 43.179688 51.621094 43.5625 L 32.671875 62.605469 C 27.496094 67.804688 18.640625 64.121094 18.644531 56.761719 L 18.644531 18.679688 C 18.640625 11.335938 27.496094 7.648438 32.671875 12.851562 Z M 32.671875 12.851562 " fill-opacity="1" fill-rule="nonzero"/></g><g clip-path="url(#3a1d873742)"><path fill="#ffffff" d="M 32.671875 12.851562 C 27.523438 7.679688 18.773438 11.292969 18.652344 18.558594 C 18.652344 18.558594 48.472656 46.90625 43.730469 51.527344 L 51.640625 43.582031 C 52.019531 43.199219 52.359375 42.78125 52.660156 42.332031 C 52.960938 41.878906 53.214844 41.402344 53.421875 40.902344 C 53.625 40.402344 53.78125 39.886719 53.886719 39.355469 C 53.992188 38.824219 54.046875 38.285156 54.046875 37.742188 C 54.046875 37.203125 53.992188 36.664062 53.886719 36.132812 C 53.78125 35.601562 53.625 35.085938 53.421875 34.585938 C 53.214844 34.085938 52.960938 33.609375 52.660156 33.15625 C 52.359375 32.707031 52.019531 32.289062 51.640625 31.90625 Z M 32.671875 12.851562 " fill-opacity="1" fill-rule="nonzero"/></g><g clip-path="url(#776ea9781a)"><path fill="#ffffff" d="M 77.605469 15.550781 C 77.605469 15.902344 77.574219 16.253906 77.503906 16.601562 C 77.433594 16.949219 77.332031 17.285156 77.199219 17.613281 C 77.0625 17.941406 76.898438 18.253906 76.703125 18.546875 C 76.507812 18.839844 76.285156 19.113281 76.035156 19.363281 C 75.785156 19.613281 75.515625 19.839844 75.21875 20.035156 C 74.925781 20.230469 74.617188 20.398438 74.292969 20.535156 C 73.964844 20.667969 73.628906 20.773438 73.285156 20.839844 C 72.9375 20.910156 72.589844 20.945312 72.238281 20.945312 C 71.886719 20.945312 71.535156 20.910156 71.191406 20.839844 C 70.84375 20.773438 70.507812 20.667969 70.183594 20.535156 C 69.855469 20.398438 69.546875 20.230469 69.253906 20.035156 C 68.960938 19.839844 68.691406 19.613281 68.441406 19.363281 C 68.191406 19.113281 67.96875 18.839844 67.773438 18.546875 C 67.578125 18.253906 67.410156 17.941406 67.277344 17.613281 C 67.140625 17.285156 67.039062 16.949219 66.972656 16.601562 C 66.902344 16.253906 66.867188 15.902344 66.867188 15.550781 C 66.867188 15.195312 66.902344 14.84375 66.972656 14.496094 C 67.039062 14.148438 67.140625 13.8125 67.277344 13.484375 C 67.410156 13.15625 67.578125 12.847656 67.773438 12.550781 C 67.96875 12.257812 68.191406 11.984375 68.441406 11.734375 C 68.691406 11.484375 68.960938 11.261719 69.253906 11.0625 C 69.546875 10.867188 69.855469 10.699219 70.183594 10.566406 C 70.507812 10.429688 70.84375 10.328125 71.191406 10.257812 C 71.535156 10.1875 71.886719 10.15625 72.238281 10.15625 C 72.589844 10.15625 72.9375 10.1875 73.285156 10.257812 C 73.628906 10.328125 73.964844 10.429688 74.292969 10.566406 C 74.617188 10.699219 74.925781 10.867188 75.21875 11.0625 C 75.515625 11.261719 75.785156 11.484375 76.035156 11.734375 C 76.285156 11.984375 76.507812 12.257812 76.703125 12.550781 C 76.898438 12.847656 77.0625 13.15625 77.199219 13.484375 C 77.332031 13.8125 77.433594 14.148438 77.503906 14.496094 C 77.574219 14.84375 77.605469 15.195312 77.605469 15.550781 Z M 77.605469 15.550781 " fill-opacity="1" fill-rule="nonzero"/><path fill="#ffffff" d="M 77.605469 15.550781 C 77.605469 15.902344 77.574219 16.253906 77.503906 16.601562 C 77.433594 16.949219 77.332031 17.285156 77.199219 17.613281 C 77.0625 17.941406 76.898438 18.253906 76.703125 18.546875 C 76.507812 18.839844 76.285156 19.113281 76.035156 19.363281 C 75.785156 19.613281 75.515625 19.839844 75.21875 20.035156 C 74.925781 20.230469 74.617188 20.398438 74.292969 20.535156 C 73.964844 20.667969 73.628906 20.773438 73.285156 20.839844 C 72.9375 20.910156 72.589844 20.945312 72.238281 20.945312 C 71.886719 20.945312 71.535156 20.910156 71.191406 20.839844 C 70.84375 20.773438 70.507812 20.667969 70.183594 20.535156 C 69.855469 20.398438 69.546875 20.230469 69.253906 20.035156 C 68.960938 19.839844 68.691406 19.613281 68.441406 19.363281 C 68.191406 19.113281 67.96875 18.839844 67.773438 18.546875 C 67.578125 18.253906 67.410156 17.941406 67.277344 17.613281 C 67.140625 17.285156 67.039062 16.949219 66.972656 16.601562 C 66.902344 16.253906 66.867188 15.902344 66.867188 15.550781 C 66.867188 15.195312 66.902344 14.84375 66.972656 14.496094 C 67.039062 14.148438 67.140625 13.8125 67.277344 13.484375 C 67.410156 13.15625 67.578125 12.847656 67.773438 12.550781 C 67.96875 12.257812 68.191406 11.984375 68.441406 11.734375 C 68.691406 11.484375 68.960938 11.261719 69.253906 11.0625 C 69.546875 10.867188 69.855469 10.699219 70.183594 10.566406 C 70.507812 10.429688 70.84375 10.328125 71.191406 10.257812 C 71.535156 10.1875 71.886719 10.15625 72.238281 10.15625 C 72.589844 10.15625 72.9375 10.1875 73.285156 10.257812 C 73.628906 10.328125 73.964844 10.429688 74.292969 10.566406 C 74.617188 10.699219 74.925781 10.867188 75.21875 11.0625 C 75.515625 11.261719 75.785156 11.484375 76.035156 11.734375 C 76.285156 11.984375 76.507812 12.257812 76.703125 12.550781 C 76.898438 12.847656 77.0625 13.15625 77.199219 13.484375 C 77.332031 13.8125 77.433594 14.148438 77.503906 14.496094 C 77.574219 14.84375 77.605469 15.195312 77.605469 15.550781 Z M 77.605469 15.550781 " fill-opacity="1" fill-rule="nonzero"/></g><g clip-path="url(#67b0d48845)"><path fill="#ffffff" d="M 75.199219 31.9375 L 56.246094 12.898438 C 51.160156 7.78125 37.597656 13.714844 42.238281 18.375 L 55.867188 32.070312 C 56.25 32.457031 56.589844 32.871094 56.890625 33.324219 C 57.191406 33.773438 57.441406 34.25 57.648438 34.75 C 57.855469 35.25 58.011719 35.765625 58.117188 36.296875 C 58.222656 36.828125 58.273438 37.363281 58.273438 37.90625 C 58.273438 38.449219 58.222656 38.984375 58.117188 39.515625 C 58.011719 40.046875 57.855469 40.566406 57.648438 41.066406 C 57.441406 41.566406 57.191406 42.042969 56.890625 42.492188 C 56.589844 42.941406 56.25 43.359375 55.867188 43.742188 L 42.246094 57.429688 C 38.09375 61.597656 51.210938 67.746094 56.246094 62.683594 L 75.199219 43.644531 C 75.582031 43.261719 75.925781 42.84375 76.226562 42.390625 C 76.527344 41.941406 76.785156 41.464844 76.992188 40.960938 C 77.199219 40.457031 77.355469 39.941406 77.460938 39.40625 C 77.566406 38.875 77.621094 38.335938 77.621094 37.789062 C 77.621094 37.246094 77.566406 36.707031 77.460938 36.175781 C 77.355469 35.640625 77.199219 35.121094 76.992188 34.621094 C 76.785156 34.117188 76.527344 33.640625 76.226562 33.191406 C 75.925781 32.738281 75.582031 32.320312 75.199219 31.9375 Z M 75.199219 31.9375 " fill-opacity="1" fill-rule="nonzero"/></g><g clip-path="url(#b50546cf22)"><path fill="#ffffff" d="M 75.199219 31.9375 L 56.246094 12.898438 C 51.160156 7.78125 37.597656 13.714844 42.238281 18.375 L 55.867188 32.070312 C 57.222656 33.433594 58.007812 35.066406 58.21875 36.980469 C 62.914062 42.519531 66.816406 47.898438 67.628906 51.246094 L 75.210938 43.632812 C 75.59375 43.246094 75.933594 42.832031 76.234375 42.378906 C 76.535156 41.925781 76.789062 41.449219 76.996094 40.949219 C 77.203125 40.445312 77.359375 39.929688 77.464844 39.394531 C 77.570312 38.863281 77.621094 38.324219 77.621094 37.78125 C 77.621094 37.238281 77.566406 36.699219 77.460938 36.167969 C 77.355469 35.636719 77.199219 35.117188 76.988281 34.617188 C 76.78125 34.113281 76.527344 33.640625 76.226562 33.1875 C 75.925781 32.738281 75.582031 32.320312 75.199219 31.9375 Z M 75.199219 31.9375 " fill-opacity="1" fill-rule="nonzero"/></g><g fill="#ffffff" fill-opacity="1"><g transform="translate(89.019751, 50.768239)"><g><path d="M 11.722656 0.585938 C 18.0625 0.585938 22.175781 -2.207031 22.175781 -7.191406 C 22.175781 -12.324219 17.796875 -14.195312 13.082031 -15.0625 C 8.777344 -15.761719 6.644531 -16.742188 6.644531 -18.894531 C 6.644531 -20.515625 7.605469 -22.160156 11.496094 -22.160156 C 14.988281 -22.160156 16.515625 -20.554688 16.515625 -18.574219 L 21.214844 -18.574219 C 21.214844 -23.179688 17.949219 -26.273438 11.550781 -26.273438 C 4.886719 -26.273438 1.945312 -23.082031 1.945312 -18.914062 C 1.945312 -13.589844 7.210938 -12.042969 11.511719 -11.15625 C 15.082031 -10.476562 17.421875 -9.589844 17.421875 -7.210938 C 17.421875 -4.660156 15.550781 -3.378906 11.703125 -3.378906 C 8.078125 -3.378906 5.984375 -5.304688 5.984375 -7.699219 L 1.285156 -7.699219 C 1.285156 -3.679688 4.304688 0.585938 11.722656 0.585938 Z M 11.722656 0.585938 "/></g></g></g><g fill="#ffffff" fill-opacity="1"><g transform="translate(112.382094, 50.768239)"><g><path d="M 7.246094 0 L 7.246094 -9.910156 C 7.246094 -13.402344 9.703125 -15.777344 12.382812 -15.777344 C 15.136719 -15.777344 16.875 -14.210938 16.875 -10.363281 L 16.875 0 L 21.441406 0 L 21.441406 -10.457031 C 21.441406 -16.554688 18.855469 -19.988281 13.644531 -19.988281 C 10.664062 -19.988281 8.34375 -18.609375 7.132812 -16.496094 L 7.246094 -18.667969 L 7.246094 -26.574219 L 2.679688 -26.574219 L 2.679688 0 Z M 7.246094 0 "/></g></g></g><g fill="#ffffff" fill-opacity="1"><g transform="translate(136.348311, 50.768239)"><g><path d="M 11.496094 0.585938 C 17.476562 0.585938 21.761719 -3.984375 21.761719 -9.703125 C 21.761719 -15.382812 17.476562 -19.988281 11.511719 -19.988281 C 5.566406 -19.988281 1.300781 -15.363281 1.300781 -9.703125 C 1.300781 -4 5.585938 0.585938 11.496094 0.585938 Z M 11.53125 -3.660156 C 8.265625 -3.660156 5.832031 -6.191406 5.832031 -9.703125 C 5.832031 -13.195312 8.265625 -15.761719 11.53125 -15.761719 C 14.796875 -15.761719 17.234375 -13.195312 17.234375 -9.703125 C 17.234375 -6.191406 14.796875 -3.660156 11.53125 -3.660156 Z M 11.53125 -3.660156 "/></g></g></g><g fill="#ffffff" fill-opacity="1"><g transform="translate(159.408717, 50.768239)"><g><path d="M 7.246094 6.625 L 7.246094 -0.886719 L 7.152344 -3.132812 C 8.4375 -0.886719 10.910156 0.585938 13.742188 0.585938 C 19.15625 0.585938 23.140625 -4 23.140625 -9.703125 C 23.140625 -15.363281 19.195312 -19.96875 13.683594 -19.96875 C 10.890625 -19.96875 8.417969 -18.476562 7.019531 -16.136719 L 7.019531 -19.402344 L 2.679688 -19.402344 L 2.679688 6.625 Z M 12.910156 -3.625 C 9.816406 -3.625 7.191406 -6.152344 7.191406 -9.703125 C 7.191406 -13.097656 9.738281 -15.761719 12.890625 -15.761719 C 16.042969 -15.761719 18.609375 -13.34375 18.609375 -9.703125 C 18.609375 -5.945312 15.988281 -3.625 12.910156 -3.625 Z M 12.910156 -3.625 "/></g></g></g><g fill="#ffffff" fill-opacity="1"><g transform="translate(183.846709, 50.768239)"><g><path d="M 9.664062 0.585938 C 14.34375 0.585938 17.816406 -1.492188 17.816406 -5.757812 C 17.816406 -9.871094 14.683594 -11.042969 10.664062 -11.644531 C 7.324219 -12.175781 6.605469 -12.644531 6.605469 -14.097656 C 6.605469 -15.269531 7.472656 -16.25 9.4375 -16.25 C 11.550781 -16.25 12.683594 -15.230469 12.777344 -13.796875 L 17.25 -13.757812 C 17.25 -17.460938 14.097656 -19.988281 9.417969 -19.988281 C 4.679688 -19.988281 2.113281 -17.574219 2.113281 -14.003906 C 2.113281 -9.984375 5.324219 -8.492188 9.058594 -8.003906 C 11.703125 -7.605469 13.15625 -7.132812 13.15625 -5.492188 C 13.15625 -4.019531 12.0625 -3.039062 9.703125 -3.039062 C 7.097656 -3.039062 5.777344 -4.378906 5.699219 -6.152344 L 1.320312 -6.171875 C 1.320312 -2.753906 3.964844 0.585938 9.664062 0.585938 Z M 9.664062 0.585938 "/></g></g></g></svg>